<svg xmlns="http://www.w3.org/2000/svg" viewBox="0 0 284.425 293.75" x="0px" y="0px"><path d="M-6530.415,201.7a33.335,33.335,0,0,1,33.3-33.3,33.335,33.335,0,0,1,33.3,33.3,33.335,33.335,0,0,1-33.3,33.3A33.336,33.336,0,0,1-6530.415,201.7Zm18.1,0a15.219,15.219,0,0,0,15.2,15.2,15.219,15.219,0,0,0,15.2-15.2,15.217,15.217,0,0,0-15.2-15.2A15.218,15.218,0,0,0-6512.318,201.7Zm-119.481,0a33.335,33.335,0,0,1,33.3-33.3,33.335,33.335,0,0,1,33.3,33.3,33.335,33.335,0,0,1-33.3,33.3A33.336,33.336,0,0,1-6631.8,201.7Zm18.1,0a15.219,15.219,0,0,0,15.2,15.2,15.22,15.22,0,0,0,15.2-15.2,15.218,15.218,0,0,0-15.2-15.2A15.217,15.217,0,0,0-6613.7,201.7Zm-12.482-37.686a9.048,9.048,0,0,1-8.6-6.245l-45.5-139.674h-30.661A9.048,9.048,0,0,1-6720,9.048,9.048,9.048,0,0,1-6710.952,0h37.229a9.047,9.047,0,0,1,8.6,6.245l9.446,29h211.048a9.048,9.048,0,0,1,9.048,9.048,9.111,9.111,0,0,1-.1,1.374,9.013,9.013,0,0,1-.212,3.742L-6465.1,157.332a9.048,9.048,0,0,1-8.734,6.684Zm6.569-18.1h138.856l25.059-92.582h-194.077Z" transform="translate(6720)"/><text x="0" y="250" fill="#000000" font-size="5px" font-weight="bold" font-family="'Helvetica Neue', Helvetica, Arial-Unicode, Arial, Sans-serif">Created by Imran shaikh</text><text x="0" y="255" fill="#000000" font-size="5px" font-weight="bold" font-family="'Helvetica Neue', Helvetica, Arial-Unicode, Arial, Sans-serif">from the Noun Project</text></svg>